<svg width="106" height="32" viewBox="0 0 32 32" fill="none" xmlns="http://www.w3.org/2000/svg">
<path fill-rule="evenodd" clip-rule="evenodd" d="M16 32C24.8366 32 32 24.8366 32 16C32 7.16344 24.8366 0 16 0C7.16344 0 0 7.16344 0 16C0 24.8366 7.16344 32 16 32ZM25.2085 15.7499C25.2085 20.6975 21.1977 24.7083 16.2502 24.7083C11.3026 24.7083 7.29182 20.6975 7.29182 15.7499C7.29182 10.8024 11.3026 6.79161 16.2502 6.79161C16.5697 6.79161 16.8853 6.80834 17.1962 6.84097C13.6367 7.25937 10.8752 10.2863 10.8752 13.9583C10.8752 17.9163 14.0838 21.1249 18.0418 21.1249C21.7138 21.1249 24.7407 18.3634 25.1591 14.8039C25.1918 15.1148 25.2085 15.4304 25.2085 15.7499ZM27.0002 15.7499C27.0002 21.687 22.1872 26.4999 16.2502 26.4999C10.3131 26.4999 5.50015 21.687 5.50015 15.7499C5.50015 9.81288 10.3131 4.99994 16.2502 4.99994C22.1872 4.99994 27.0002 9.81288 27.0002 15.7499ZM18.0418 19.3333C21.0104 19.3333 23.4168 16.9268 23.4168 13.9583C23.4168 10.9897 21.0104 8.58327 18.0418 8.58327C17.7044 8.58327 17.3743 8.61436 17.0541 8.67382C18.646 9.03876 19.8335 10.464 19.8335 12.1666C19.8335 14.1456 18.2292 15.7499 16.2502 15.7499C14.5476 15.7499 13.1223 14.5625 12.7574 12.9706C12.6979 13.2908 12.6668 13.6209 12.6668 13.9583C12.6668 16.9268 15.0733 19.3333 18.0418 19.3333ZM16.2502 13.9583C17.2397 13.9583 18.0418 13.1561 18.0418 12.1666C18.0418 11.1771 17.2397 10.3749 16.2502 10.3749C15.2606 10.3749 14.4585 11.1771 14.4585 12.1666C14.4585 13.1561 15.2606 13.9583 16.2502 13.9583Z" fill="#8330C2"/>
</svg>