<?xml version="1.0" encoding="UTF-8" standalone="no"?>
<!-- Generator: Adobe Illustrator 22.1.0, SVG Export Plug-In . SVG Version: 6.00 Build 0)  -->

<svg
   xmlns:dc="http://purl.org/dc/elements/1.1/"
   xmlns:cc="http://creativecommons.org/ns#"
   xmlns:rdf="http://www.w3.org/1999/02/22-rdf-syntax-ns#"
   xmlns:svg="http://www.w3.org/2000/svg"
   xmlns="http://www.w3.org/2000/svg"
   xmlns:sodipodi="http://sodipodi.sourceforge.net/DTD/sodipodi-0.dtd"
   xmlns:inkscape="http://www.inkscape.org/namespaces/inkscape"
   version="1.1"
   id="Layer_1"
   x="0px"
   y="0px"
   viewBox="0 0 128 128"
   xml:space="preserve"
   sodipodi:docname="logo-white.svg"
   width="128"
   height="128"
   inkscape:version="0.91 r13725"
   inkscape:export-filename="/home/pdorogi/Projects/Genesis/website/staging/img/logo-white.svg.png"
   inkscape:export-xdpi="90.377068"
   inkscape:export-ydpi="90.377068"><metadata
     id="metadata29"><rdf:RDF><cc:Work
         rdf:about=""><dc:format>image/svg+xml</dc:format><dc:type
           rdf:resource="http://purl.org/dc/dcmitype/StillImage" /><dc:title></dc:title></cc:Work></rdf:RDF></metadata><defs
     id="defs27" /><sodipodi:namedview
     pagecolor="#ffffff"
     bordercolor="#666666"
     borderopacity="1"
     objecttolerance="10"
     gridtolerance="10"
     guidetolerance="10"
     inkscape:pageopacity="0"
     inkscape:pageshadow="2"
     inkscape:window-width="1623"
     inkscape:window-height="987"
     id="namedview25"
     showgrid="false"
     inkscape:zoom="4.5718617"
     inkscape:cx="26.75315"
     inkscape:cy="55.938015"
     inkscape:window-x="57"
     inkscape:window-y="21"
     inkscape:window-maximized="1"
     inkscape:current-layer="g22"
     units="px"
     borderlayer="false"
     showborder="true" /><g
     id="g22"
     transform="matrix(3.9436463,0,0,3.839405,-175.11938,-116.02897)"><path
       d="m 51.860553,37.776999 0.604148,0.517693 c -1.006911,1.035384 -1.812441,2.277846 -2.416587,3.727384 l 1.611057,0.724771 c 0.906221,-2.070771 2.416587,-3.830924 4.430411,-4.969848 V 35.70623 c -0.805529,0.414153 -1.611059,0.828307 -2.315896,1.346 l -2.114515,-1.967232 c 1.812441,-1.449538 3.926954,-2.484924 6.14216,-2.899077 v 22.467851 c 0.604147,0.207077 1.208294,0.414154 1.81244,0.517693 V 30.322228 c -4.128337,0.207077 -7.753218,2.07077 -10.471878,4.866308 z"
       id="path10"
       inkscape:connector-curvature="0"
       style="stroke-width:1.02104878;fill:#ffffff" /><path
       d="m 56.89511,61.176696 c -2.718661,-0.724769 -5.235939,-2.381384 -7.14907,-4.555693 -0.201382,-0.310615 -0.503456,-0.621231 -0.704839,-0.931847 l -1.510366,0.828309 c 0.100691,0.207076 0.302073,0.414153 0.402764,0.517691 0.201382,0.207078 0.302074,0.414156 0.503456,0.621232 0.100691,0.103539 0.201383,0.207077 0.302074,0.310615 2.416587,2.692 5.638703,4.555693 9.263584,5.280463 v 0 c 0.604147,0.103539 1.208293,0.207077 1.812441,0.207077 V 61.797927 C 58.707551,61.694389 57.801331,61.487312 56.89511,61.176696 Z"
       id="path12"
       inkscape:connector-curvature="0"
       style="stroke-width:1.02104878;fill:#ffffff" /><path
       d="m 46.22185,45.438847 2.819351,0.414154 c 0,0.310615 0,0.621231 0,0.931846 0,1.449539 0.302074,3.002616 0.80553,4.348616 l -2.517278,1.346 c -0.704839,-1.656615 -1.006911,-3.41677 -1.107603,-5.176924 l -1.711749,-0.310614 c 0,2.899076 0.805528,5.591077 2.013822,7.972463 l 3.926954,-2.07077 0.100692,-0.103539 c 0.302073,0.621231 0.704838,1.242462 1.208293,1.760154 1.611059,1.967232 3.725572,3.313232 6.041469,4.038001 v 1.035385 c 0.604147,0.207077 1.208294,0.310615 1.81244,0.414154 v -2.899078 c -0.604146,-0.103539 -1.208293,-0.207077 -1.81244,-0.414154 v 0 c -0.100691,0 -0.100691,-0.103538 -0.201382,-0.103538 -0.100691,0 -0.201383,-0.103538 -0.302074,-0.103538 -0.100691,0 -0.201382,-0.103539 -0.302074,-0.103539 -0.100691,-0.103538 -0.201382,-0.103538 -0.402764,-0.207076 v 0 c -1.308984,-0.621232 -2.517279,-1.553078 -3.52419,-2.79554 -1.510367,-1.760154 -2.315896,-4.141538 -2.315896,-6.626463 0,-0.207077 0,-0.414154 0,-0.621231 l 2.61797,0.414154 v 4.76277 h 1.812441 v -6.315847 l -8.659439,-1.346 c 0.503456,-2.174308 1.409676,-4.14154 2.718661,-5.901694 L 48.03429,36.638076 c -1.81244,2.381385 -3.121424,5.384 -3.423498,8.593694 z"
       id="path14"
       inkscape:connector-curvature="0"
       style="stroke-width:1.02104878;fill:#ffffff" /><path
       d="m 61.627594,36.56953 c 1.107603,0.206016 2.114514,0.51504 3.020734,1.030077 2.114513,1.030078 3.725572,2.781209 4.732483,4.841364 0,0.103008 0.100691,0.206015 0.100691,0.309022 l 1.611059,-0.721054 c -0.100692,-0.103008 -0.100692,-0.309023 -0.201383,-0.41203 -0.604146,-1.236093 -1.308985,-2.26617 -2.215204,-3.296248 l 0.503456,-0.515038 v 0 l 2.718659,-2.575193 c -1.913131,-1.957146 -4.229027,-3.399254 -6.947687,-4.223316 v 1.75113 c 1.611058,0.51504 3.020734,1.339101 4.329719,2.369178 L 67.165606,37.08457 C 65.957313,36.1575 64.547637,35.436445 63.137961,35.024414 v -2.781207 0 -1.751132 c -0.604147,-0.103007 -1.208294,-0.206014 -1.81244,-0.206014 v 6.283469 z"
       id="path16"
       inkscape:connector-curvature="0"
       style="stroke-width:1.01842833;fill:#ffffff" /><path
       d="m 71.998781,37.908631 c 1.308984,1.75113 2.215205,3.708278 2.71866,5.87144 l -8.760128,1.339099 v 6.28347 h 1.812441 v -4.738354 l 2.617969,-0.412031 v 0.618046 c 0,2.369179 -0.80553,4.738356 -2.315897,6.592494 -1.208293,1.545116 -2.819351,2.575193 -4.631792,3.193239 V 39.041716 c -0.604146,-0.309024 -1.208293,-0.412031 -1.81244,-0.618046 v 21.52861 c 0.604147,-0.103007 1.208294,-0.206014 1.81244,-0.41203 v -1.030077 c 2.315896,-0.618046 4.430411,-2.060154 6.041468,-4.017302 0.402765,-0.515037 0.80553,-1.133083 1.208294,-1.75113 l 0.100691,0.103008 4.027646,2.060154 c 1.308984,-2.369178 2.013823,-5.047378 2.013823,-7.931593 l -1.71175,0.309022 c -0.100691,1.854138 -0.402765,3.60527 -1.107602,5.150386 l -2.517278,-1.3391 c 0.503455,-1.3391 0.805528,-2.781208 0.805528,-4.326324 0,-0.309024 0,-0.618046 0,-0.927069 l 2.819352,-0.412032 1.71175,-0.309023 c -0.302074,-3.193239 -1.510367,-6.180462 -3.423499,-8.54964 z"
       id="path18"
       inkscape:connector-curvature="0"
       style="stroke-width:1.01842833;fill:#ffffff" /><path
       d="m 71.394634,56.656034 v 0 c -1.812441,2.163163 -4.329719,3.708277 -7.149071,4.532339 -0.90622,0.309024 -1.81244,0.515039 -2.71866,0.618046 v 1.648124 c 0.604146,0 1.208294,-0.103007 1.81244,-0.206015 v 0 c 3.624881,-0.721055 6.746307,-2.472185 9.162894,-5.150387 0.100691,-0.206014 0.302073,-0.309022 0.402765,-0.515037 0.100691,-0.103007 0.100691,-0.103007 0.100691,-0.206015 0.201381,-0.309025 0.402764,-0.51504 0.604146,-0.824062 l -1.510367,-0.824063 c -0.201383,0.309024 -0.402764,0.618047 -0.704838,0.92707 z"
       id="path20"
       inkscape:connector-curvature="0"
       style="stroke-width:1.01842833;fill:#ffffff" /></g></svg>